<svg aria-hidden="true" style="position: absolute; width: 0; height: 0; overflow: hidden;" version="1.1" xmlns="http://www.w3.org/2000/svg" xmlns:xlink="http://www.w3.org/1999/xlink">
<defs>
<symbol id="icon-human" viewBox="0 0 32 32">
<path d="M14.327 31.817c-0.11-0.073-0.182-0.196-0.182-0.336 0-0.027 0.003-0.053 0.008-0.079l-0 0.003c0.019-0.114 0.049-0.216 0.092-0.312l-0.003 0.008c0.068-0.149 0.028-0.278-0.108-0.326-0.29-0.102-0.33-0.283-0.274-0.557 0.079-0.387 0.114-0.783 0.18-1.172 0.146-0.861 0.197-1.737 0.441-2.581 0.066-0.229 0.121-0.461 0.19-0.689 0.083-0.276 0.176-0.549 0.264-0.824-0.177-0.196-0.36-0.387-0.529-0.59-0.101-0.122-0.176-0.264-0.266-0.395-0.075-0.145-0.169-0.268-0.28-0.374l-0.001-0.001c-0.161-0.113-0.276 0.094-0.419 0.138-0.055 0.029-0.121 0.045-0.19 0.045-0.212 0-0.388-0.156-0.419-0.359l-0-0.002c-0.096-0.275-0.18-0.554-0.273-0.83-0.024-0.061-0.083-0.104-0.152-0.104-0.040 0-0.076 0.014-0.105 0.038l0-0c-0.224 0.141-0.37 0.387-0.37 0.667 0 0.026 0.001 0.053 0.004 0.079l-0-0.003c0.007 0.111 0.011 0.241 0.011 0.371 0 0.093-0.002 0.186-0.006 0.278l0-0.013c0.001 0.018 0.002 0.039 0.002 0.060 0 0.091-0.011 0.178-0.033 0.262l0.002-0.007c-0.030 0.071-0.087 0.125-0.158 0.149l-0.002 0.001c-0.011 0.002-0.025 0.003-0.038 0.003-0.065 0-0.123-0.026-0.165-0.069l-0-0c-0.063-0.112-0.131-0.252-0.192-0.395l-0.011-0.029c-0.038-0.076 0.004-0.252-0.157-0.189-0.090 0.053-0.155 0.139-0.179 0.241l-0.001 0.003c-0.024 0.118-0.038 0.254-0.038 0.393 0 0.028 0.001 0.055 0.002 0.083l-0-0.004c0 0.61 0.007 1.221 0.010 1.83 0 0.016 0.001 0.034 0.001 0.053 0 0.093-0.005 0.184-0.014 0.275l0.001-0.011c-0.035 0.119-0.143 0.205-0.271 0.205-0.038 0-0.074-0.007-0.106-0.021l0.002 0.001c-0.204-0.071-0.351-0.256-0.364-0.477l-0-0.002c-0.024-0.316-0.011-0.636-0.016-0.954-0.003-0.158-0.008-0.316-0.023-0.473-0.002-0.024-0.068-0.047-0.107-0.057-0.027 0.002-0.050 0.017-0.062 0.040l-0 0c-0.052 0.129-0.093 0.28-0.116 0.437l-0.001 0.011c-0.023 0.422-0.018 0.847-0.032 1.271-0.022 0.134-0.133 0.237-0.27 0.245l-0.001 0c-0.017 0.003-0.036 0.005-0.056 0.005-0.147 0-0.27-0.105-0.297-0.244l-0-0.002c-0.018-0.211-0.014-0.423-0.025-0.635-0.005-0.103-0.010-0.214-0.145-0.239-0.014-0.002-0.031-0.004-0.048-0.004-0.15 0-0.275 0.108-0.302 0.25l-0 0.002c0 0.185 0.030 0.371 0.023 0.555-0.008 0.14-0.035 0.271-0.079 0.395l0.003-0.010c-0.053 0.133-0.18 0.224-0.329 0.224-0.019 0-0.037-0.001-0.055-0.004l0.002 0c-0.166-0.012-0.299-0.135-0.327-0.295l-0-0.002c-0.017-0.211-0.015-0.424-0.019-0.635 0.004-0.021 0.006-0.045 0.006-0.070 0-0.114-0.047-0.218-0.123-0.292l-0-0c-0.264-0.203-0.19-0.395 0.007-0.598 0.031-0.038 0.050-0.087 0.050-0.141 0-0.023-0.003-0.044-0.010-0.065l0 0.002c-0.123-0.204-0.053-0.329 0.116-0.469 0.96-0.793 1.912-1.595 2.867-2.394 0.046-0.031 0.086-0.064 0.123-0.1v0c0.523-0.667 1.081-1.316 1.401-2.111 0.208-0.59 0.416-1.073 0.65-1.54l-0.035 0.077c0.045-0.075 0.071-0.165 0.071-0.262 0-0.098-0.027-0.19-0.074-0.268l0.001 0.002c-0.445-0.844-0.789-1.738-1.306-2.545-0.195-0.293-0.339-0.637-0.412-1.007l-0.003-0.018c-0.121-0.574-0.373-1.076-0.724-1.493l0.004 0.005c-0.264-0.333-0.506-0.681-0.77-1.012-0.167-0.211-0.268-0.481-0.268-0.775 0-0.154 0.028-0.302 0.079-0.438l-0.003 0.009c0.083-0.43 0.45-0.753 0.895-0.767l0.001-0c0.336-0.023 0.357-0.062 0.349-0.386 0.002-0.087 0.003-0.189 0.003-0.292 0-0.623-0.041-1.237-0.121-1.838l0.008 0.070c-0.042-0.333-0.066-0.717-0.066-1.108 0-0.169 0.005-0.337 0.013-0.504l-0.001 0.023c-0-0.003-0-0.007-0-0.011 0-0.25 0.181-0.457 0.419-0.498l0.003-0c0.101-0.029 0.211-0.025 0.313-0.048 0.076-0.017 0.183-0.029 0.215-0.081 0.293-0.478 0.755-0.416 1.207-0.4 0.080-0.001 0.158-0.006 0.234-0.017l-0.009 0.001c0.069-0.278-0.102-0.506-0.182-0.746-0.106-0.325-0.171-0.699-0.179-1.088l-0-0.004c-0.053-1.265 0.611-2.094 1.636-2.698 0.21-0.148 0.471-0.236 0.753-0.236 0.138 0 0.271 0.021 0.397 0.061l-0.009-0.003c0.061 0.011 0.131 0.017 0.203 0.017 0.064 0 0.127-0.005 0.189-0.015l-0.007 0.001c0.094-0.008 0.203-0.012 0.314-0.012 0.085 0 0.169 0.003 0.252 0.008l-0.011-0.001c0.387 0.031 0.708 0.287 0.832 0.636l0.002 0.007c0.065 0.168 0.024 0.334-0.148 0.384-0.189 0.032-0.355 0.114-0.488 0.232l0.001-0.001c-0.051 0.049-0.121 0.080-0.197 0.080-0.063 0-0.122-0.021-0.169-0.056l0.001 0.001c-0.211-0.114-0.359-0.010-0.471 0.154-0.077 0.099-0.136 0.217-0.167 0.346l-0.001 0.006c-0.026 0.193-0.104 0.364-0.219 0.503l0.001-0.002c-0.076 0.111-0.122 0.248-0.122 0.396 0 0.104 0.022 0.202 0.063 0.291l-0.002-0.004c0.033 0.102 0.104 0.184 0.196 0.231l0.002 0.001c0.293 0.117 0.61 0.293 0.914 0.204 0.574-0.167 1.107 0.016 1.645 0.11 0.84 0.148 0.929 0.284 1.039 1.144 0.007 0.053 0.011 0.105 0.018 0.158 0.002 0.111 0.087 0.201 0.196 0.21l0.001 0c0.552 0.057 1.090 0.225 1.651 0.207 0.003-0 0.008-0 0.012-0 0.080 0 0.158 0.009 0.233 0.025l-0.007-0.001c0.256 0.021 0.456 0.235 0.456 0.495 0 0.021-0.001 0.043-0.004 0.063l0-0.002c-0.015 0.316-0.055 0.633-0.095 0.949-0.106 0.813-0.278 1.545-0.515 2.247l0.024-0.082c-0.053 0.156 0.045 0.276 0.194 0.229 0.267-0.075 0.574-0.118 0.891-0.118 0.102 0 0.203 0.004 0.303 0.013l-0.013-0.001c0.008-0.001 0.018-0.001 0.028-0.001 0.253 0 0.458 0.205 0.458 0.458 0 0.018-0.001 0.036-0.003 0.053l0-0.002c-0.006 0.252-0.071 0.487-0.181 0.694l0.004-0.008c-0.463 0.979-1.051 1.819-1.756 2.543l0.002-0.002c-0.154 0.166-0.27 0.369-0.333 0.595l-0.003 0.010q-0.365 1.090-0.81 2.155c-0.296 0.708-0.636 1.399-0.956 2.097-0.353 0.369-0.257 0.765-0.061 1.16q0.245 0.501 0.498 0.995c0.193 0.474 0.574 0.837 1.048 1.002l0.012 0.004c0.209 0.087 0.388 0.195 0.55 0.325l-0.005-0.003c0.578 0.376 1.163 0.741 1.725 1.138 0.454 0.32 0.882 0.678 1.314 1.028 0.097 0.088 0.183 0.186 0.255 0.293l0.004 0.006c0.050 0.060 0.080 0.137 0.080 0.221 0 0.083-0.029 0.16-0.078 0.219l0-0.001c-0.071 0.093-0.181 0.152-0.306 0.152-0.044 0-0.086-0.007-0.125-0.021l0.003 0.001c-0.131-0.041-0.244-0.108-0.338-0.196l0 0c-1.002-1.004-2.279-1.639-3.383-2.505-0.019-0.012-0.043-0.024-0.067-0.035l-0.004-0.002c-0.275-0.165-0.358-0.157-0.514 0.103-0.314 0.523-0.615 1.053-0.923 1.579-0.079 0.137-0.161 0.274-0.244 0.409-0.154 0.253-0.358 0.399-0.661 0.26-0.127-0.058-0.2 0.003-0.267 0.084-0.235 0.285-0.465 0.574-0.697 0.862 0.127 0.346 0.262 0.689 0.379 1.039q0.215 0.64 0.406 1.287c0.195 0.701 0.415 1.296 0.679 1.867l-0.031-0.076c0.124 0.257 0.227 0.557 0.294 0.87l0.005 0.027c0.063 0.3-0.164 0.479-0.491 0.437-0.028-0.004-0.053-0.013-0.075-0.027l0.001 0c-0.11-0.065-0.175-0.057-0.224 0.083-0.076 0.223-0.162 0.414-0.263 0.594l0.009-0.018c-0.087 0.165-0.248 0.281-0.438 0.305l-0.003 0c-0.106 0.012-0.201 0.056-0.275 0.123l0-0c-0.163 0.17-0.284 0.412-0.56 0.393-0.003-0-0.008-0-0.012-0-0.091 0-0.179 0.015-0.261 0.043l0.006-0.002c-0.061 0.026-0.131 0.041-0.206 0.041-0.081 0-0.158-0.018-0.227-0.051l0.003 0.001c-0.138-0.077-0.24 0.043-0.35 0.115-0.107 0.088-0.241 0.148-0.388 0.166l-0.004 0c-0.151-0.020-0.283-0.088-0.384-0.187l0 0zM16.014 28.477c-0.216 0.114-0.393 0.22-0.564 0.335l0.022-0.014c-0.365 0.246-0.636 0.609-0.761 1.034l-0.003 0.013c-0.034 0.13 0.007 0.164 0.144 0.138 0.824-0.158 1.577-0.547 2.391-0.738 0.038-0.009 0.065-0.073 0.096-0.111 0.002-0.014 0.003-0.031 0.003-0.048 0-0.037-0.005-0.074-0.013-0.108l0.001 0.003c-0.307-0.657-0.314-0.949-0.487-0.949-0.126-0.001-0.342 0.157-0.83 0.444zM15.536 25.422c-0.079 0.219-0.158 0.497-0.22 0.781l-0.009 0.049c-0.007 0.026 0.073 0.105 0.082 0.1 0.279-0.143 0.557-0.29 0.829-0.446 0.032-0.018 0.033-0.091 0.049-0.14-0.040-0.24-0.228-0.426-0.465-0.463l-0.003-0h-0.012c-0.090-0.001-0.229 0.056-0.252 0.119zM15.992 22.789c-0.084 0.115-0.113 0.244 0.033 0.337 0.131 0.074 0.219 0.213 0.219 0.372 0 0.092-0.029 0.177-0.078 0.246l0.001-0.001c-0.076 0.165-0.138 0.336-0.202 0.506-0.005 0.014 0.028 0.042 0.044 0.063 0.023-0.008 0.053-0.010 0.068-0.026 0.294-0.301 0.588-0.602 0.876-0.909 0.005-0.014 0.008-0.029 0.008-0.046 0-0.032-0.011-0.061-0.029-0.084l0 0c-0.224-0.183-0.452-0.361-0.683-0.537-0.026-0.022-0.059-0.036-0.095-0.037h-0c-0.069 0-0.121 0.060-0.163 0.117zM14.503 22.872c-0.021 0.023 0.002 0.091 0.014 0.137 0.005 0.019 0.034 0.032 0.084 0.075 0.061-0.118 0.119-0.226 0.17-0.337 0.005-0.011-0.028-0.040-0.043-0.061-0.084 0.060-0.158 0.121-0.227 0.187l0.001-0.001zM18.144 19.63c-0.204 0.233-0.486 0.435-0.46 0.788 0.001 0.015 0.002 0.032 0.002 0.050 0 0.317-0.198 0.588-0.478 0.696l-0.005 0.002c-0.28 0.167-0.61 0.28-0.964 0.316l-0.010 0.001c-0.105 0.007-0.211 0.019-0.316 0.032-0.027 0.009-0.051 0.020-0.072 0.035l0.001-0.001c0.011 0.021 0.016 0.048 0.032 0.060 0.585 0.407 1.169 0.817 1.759 1.218 0.185 0.125 0.276 0.096 0.384-0.089q0.521-0.891 1.038-1.783c0.020-0.042 0.037-0.092 0.050-0.143l0.001-0.005c-0.010-0.024-0.013-0.056-0.030-0.072-0.298-0.316-0.562-0.668-0.785-1.049l-0.015-0.027c-0.027-0.022-0.063-0.036-0.101-0.036-0.001 0-0.003 0-0.004 0h0c-0.001-0-0.003-0-0.004-0-0.009 0-0.017 0.003-0.024 0.008l0-0zM13.547 19.454c-0.168 0.457-0.375 0.851-0.624 1.214l0.012-0.018c-0.050 0.060-0.007 0.197-0.007 0.298h0.040c0 0.076 0.026 0.165-0.004 0.226-0.041 0.091-0.065 0.196-0.065 0.308 0 0.14 0.038 0.271 0.103 0.383l-0.002-0.004c0.042 0.097 0.056 0.205 0.097 0.303 0.079 0.193 0.166 0.383 0.25 0.573 0.294 0.041 0.388-0.233 0.56-0.372 0.349-0.282 0.677-0.592 1.007-0.898 0.040-0.034 0.066-0.084 0.066-0.141s-0.026-0.107-0.066-0.14l-0-0c-0.276-0.273-0.496-0.602-0.64-0.969l-0.007-0.019c-0.125-0.264-0.274-0.514-0.419-0.767-0.026-0.056-0.079-0.096-0.143-0.102l-0.001-0c-0.073 0.008-0.133 0.058-0.156 0.125l-0 0.001zM11.78 11.753c-0.048 1.292 0.108 2.54 0.797 3.673 0.096 0.158 0.166 0.331 0.25 0.497 0.538 1.064 1.072 2.131 1.618 3.19 0.23 0.463 0.451 0.846 0.693 1.215l-0.027-0.044c0.334 0.497 0.737 0.554 1.221 0.202 0.103-0.081 0.188-0.179 0.252-0.291l0.003-0.005q0.606-1.026 1.198-2.061c0.085-0.125 0.148-0.272 0.18-0.43l0.001-0.008c0.064-0.333 0.182-0.63 0.345-0.896l-0.007 0.012c0.514-0.981 0.981-2.131 1.336-3.329l0.035-0.139c0.172-0.537 0.274-1.155 0.279-1.796l0-0.003c-0.004-0.163-0.014-0.316-0.188-0.4-0.126-0.069-0.209-0.201-0.209-0.352 0-0.015 0.001-0.030 0.002-0.045l-0 0.002c-0.035-0.687-0.077-1.374-0.108-2.062-0.008-0.252-0.057-0.49-0.141-0.711l0.005 0.015c-0.151-0.394-0.269-0.801-0.408-1.199-0.025-0.109-0.076-0.203-0.146-0.279l0 0c-0.265-0.249-0.487-0.541-0.655-0.865l-0.008-0.018c-0.031-0.071-0.101-0.12-0.182-0.12-0.055 0-0.106 0.023-0.142 0.060l-0 0c-0.335 0.263-0.619 0.571-0.851 0.917l-0.009 0.014c-0.226 0.291-0.529 0.513-0.878 0.638l-0.013 0.004c-0.11 0.054-0.24 0.085-0.377 0.085-0.312 0-0.586-0.163-0.741-0.408l-0.002-0.004c-0.145-0.189-0.269-0.395-0.404-0.591-0.025-0.045-0.072-0.075-0.126-0.075-0.053 0-0.099 0.029-0.124 0.071l-0 0.001c-0.468 0.631-0.903 1.346-1.269 2.1l-0.035 0.080c-0.112 0.273-0.183 0.589-0.196 0.921l-0 0.005c-0.032 0.369-0.007 0.742-0.007 1.113h-0.021c0 0.424 0.009 0.848-0.004 1.272-0.012 0.167-0.127 0.304-0.281 0.348l-0.003 0.001c-0.134 0.050-0.288-0.032-0.385-0.206-0.023-0.039-0.046-0.086-0.066-0.135l-0.003-0.008c-0.037-0.097-0.070-0.196-0.105-0.294-0.040 0.097-0.073 0.21-0.092 0.328l-0.001 0.009zM10.409 10.631c-0.077 0.102-0.123 0.231-0.123 0.371 0 0.109 0.028 0.211 0.078 0.3l-0.002-0.003c0.072 0.119 0.148 0.223 0.232 0.319l-0.002-0.002c0.087 0.093 0.221 0.253 0.288 0.233 0.185-0.055 0.072-0.255 0.101-0.393 0.003-0.025 0.005-0.054 0.005-0.083 0-0.023-0.001-0.046-0.003-0.068l0 0.003c0.008-0.14 0.017-0.271 0.025-0.402 0.003-0.053 0.008-0.105 0.009-0.158 0.001-0.006 0.001-0.013 0.001-0.020 0-0.101-0.076-0.185-0.175-0.196l-0.001-0c-0.056-0.011-0.122-0.019-0.189-0.021l-0.002-0c-0.009-0.001-0.018-0.002-0.028-0.002-0.091 0-0.171 0.048-0.216 0.121l-0.001 0.001zM21.987 9.774c-0.31 0.032-0.618 0.079-0.926 0.13-0.109 0.021-0.19 0.116-0.19 0.229 0 0.024 0.004 0.047 0.011 0.069l-0-0.002c0.083 0.283 0.131 0.608 0.131 0.944 0 0.076-0.002 0.152-0.007 0.226l0.001-0.010c0.008 0.080 0.030 0.154 0.063 0.221l-0.002-0.004c0.072-0.025 0.135-0.060 0.189-0.104l-0.001 0.001c0.323-0.406 0.608-0.867 0.834-1.359l0.017-0.042c0.017-0.052 0.028-0.113 0.032-0.176l0-0.002c-0.043-0.036-0.099-0.122-0.147-0.122zM13.088 4.844c0.007 0.011 0.032 0.010 0.050 0.015l-0.062-0.051c0.001 0.013 0.004 0.025 0.009 0.036l-0-0.001zM15.149 16.159c-0.007-0.026-0.011-0.056-0.011-0.088 0-0.074 0.022-0.142 0.060-0.199l-0.001 0.001c0.371-0.334 0.794-0.507 1.294-0.306 0.101 0.037 0.185 0.098 0.249 0.177l0.001 0.001c0.045 0.060 0.072 0.137 0.072 0.219 0 0.022-0.002 0.043-0.006 0.064l0-0.002c-0.042 0.092-0.12 0.161-0.215 0.191l-0.002 0.001c-0.069 0.011-0.148 0.017-0.229 0.017-0.057 0-0.113-0.003-0.168-0.009l0.007 0.001-0.001-0.032c-0.286 0.026-0.573 0.058-0.86 0.070h-0.004c-0.070-0.001-0.181-0.059-0.19-0.105zM15.808 14.927c-0.187-0.122-0.349-0.249-0.501-0.388l0.003 0.003c-0.216-0.18-0.352-0.448-0.352-0.749 0-0.087 0.011-0.171 0.033-0.251l-0.002 0.007c0.119-0.539 0.211-1.084 0.337-1.62 0.053-0.155 0.136-0.288 0.242-0.397l-0 0c0.039-0.031 0.089-0.049 0.143-0.049 0.024 0 0.047 0.004 0.069 0.010l-0.002-0c0.058 0.022 0.099 0.105 0.13 0.171 0.012 0.054 0.019 0.115 0.019 0.178 0 0.018-0.001 0.037-0.002 0.055l0-0.002c-0.071 0.393-0.155 0.858-0.237 1.323-0.028 0.155-0.057 0.309-0.079 0.465-0.004 0.024-0.006 0.052-0.006 0.080 0 0.194 0.111 0.363 0.273 0.446l0.003 0.001c0.053 0.031 0.171 0.038 0.2 0.005 0.172-0.199 0.316-0.422 0.49-0.618 0.088-0.088 0.197-0.157 0.317-0.198l0.006-0.002c0.011-0.002 0.023-0.003 0.036-0.003 0.067 0 0.127 0.026 0.171 0.069l-0-0c0.042 0.052 0.068 0.119 0.068 0.192 0 0.007-0 0.013-0.001 0.020l0-0.001c-0.007 0.082-0.037 0.156-0.083 0.218l0.001-0.001c-0.23 0.321-0.461 0.642-0.704 0.953-0.076 0.097-0.193 0.159-0.325 0.159-0 0-0 0-0.001 0h0c-0.092-0.001-0.178-0.029-0.249-0.077l0.002 0.001zM13.877 11.76c-0.034-0.207-0.046-0.418-0.066-0.616 0.020-0.226 0.026-0.437 0.059-0.646 0.036-0.122 0.147-0.21 0.279-0.21 0.062 0 0.119 0.019 0.166 0.052l-0.001-0.001c0.084 0.061 0.152 0.138 0.202 0.226l0.002 0.004c0.076 0.175 0.121 0.379 0.121 0.594 0 0.121-0.014 0.239-0.041 0.351l0.002-0.010c-0.034 0.19-0.16 0.345-0.33 0.418l-0.004 0.001c-0.031 0.014-0.068 0.022-0.106 0.022-0.001 0-0.002 0-0.004-0h0c-0.006 0.001-0.014 0.001-0.021 0.001-0.121 0-0.223-0.078-0.26-0.186l-0.001-0.002zM17.574 11.764c-0.138-0.006-0.254-0.091-0.306-0.21l-0.001-0.002c-0.038-0.064-0.064-0.139-0.072-0.22l-0-0.002c-0.006-0.316-0.002-0.63 0.004-0.945 0.009-0.055 0.028-0.104 0.054-0.149l-0.001 0.002c0.055-0.098 0.158-0.164 0.277-0.164 0.073 0 0.139 0.024 0.193 0.066l-0.001-0.001c0.173 0.167 0.281 0.401 0.281 0.661 0 0.048-0.004 0.095-0.011 0.141l0.001-0.005c-0.040 0.205-0.066 0.413-0.124 0.612-0.033 0.126-0.146 0.218-0.281 0.218-0.002 0-0.005-0-0.007-0h0zM13.289 9.973c-0.123-0.059-0.207-0.182-0.207-0.325 0-0.024 0.002-0.048 0.007-0.071l-0 0.002c0.128-0.361 0.351-0.661 0.639-0.881l0.005-0.003c0.108-0.057 0.235-0.096 0.368-0.109l0.004-0c0.016-0.001 0.036-0.002 0.055-0.002 0.399 0 0.732 0.282 0.811 0.658l0.001 0.005c0.007 0.026 0.011 0.055 0.011 0.085 0 0.109-0.052 0.207-0.133 0.268l-0.001 0.001c-0.052 0.049-0.122 0.080-0.2 0.080-0.062 0-0.119-0.019-0.166-0.053l0.001 0.001c-0.072-0.047-0.134-0.094-0.194-0.145l0.002 0.002c-0.034-0.032-0.080-0.052-0.13-0.052-0.061 0-0.115 0.029-0.15 0.073l-0 0c-0.125 0.136-0.225 0.296-0.356 0.424-0.051 0.052-0.123 0.085-0.202 0.085v0c-0.062-0.001-0.12-0.018-0.17-0.046l0.002 0.001zM16.791 9.773c-0.066-0.075-0.153-0.185-0.14-0.266 0.062-0.406 0.352-0.73 0.733-0.842l0.007-0.002c0.080-0.028 0.173-0.044 0.269-0.044 0.265 0 0.502 0.123 0.656 0.315l0.001 0.002c0.056 0.054 0.091 0.129 0.091 0.212 0 0.054-0.015 0.105-0.040 0.148l0.001-0.001c-0.063 0.107-0.178 0.178-0.309 0.178-0.007 0-0.013-0-0.020-0.001l0.001 0c-0.073-0.011-0.139-0.029-0.202-0.055l0.006 0.002c-0.049-0.018-0.105-0.029-0.164-0.029-0.147 0-0.278 0.066-0.365 0.171l-0.001 0.001c-0.070 0.076-0.149 0.143-0.235 0.2l-0.005 0.003c-0.046 0.035-0.103 0.058-0.165 0.063l-0.001 0c-0.001 0-0.002 0-0.002 0-0.048 0-0.091-0.022-0.119-0.056l-0-0z"></path>
</symbol>
<symbol id="icon-logo" viewBox="0 0 32 32">
<path d="M2.497 23.465v-15.286c0-1.113 0.904-2.017 2.017-2.017h23.099c1.112 0 2.019 0.902 2.019 2.017v15.286c0 1.114-0.905 2.017-2.019 2.017h-23.099c-1.113 0-2.017-0.903-2.017-2.017zM15.362 24.207v-16.767h-10.848c-0.409 0-0.74 0.332-0.74 0.74v15.286c0 0.409 0.331 0.741 0.74 0.741h10.848zM20.302 20.175c0-0.194-0.16-0.355-0.355-0.355h-2.195c-0.195 0-0.355 0.161-0.355 0.355 0 0.196 0.159 0.355 0.355 0.355h2.195c0.195 0 0.355-0.159 0.355-0.355zM25.886 20.175c0-0.194-0.161-0.355-0.355-0.355h-2.194c-0.196 0-0.355 0.161-0.355 0.355 0 0.196 0.159 0.355 0.355 0.355h2.194c0.195 0 0.355-0.159 0.355-0.355zM21.21 18.889c0-0.194-0.16-0.355-0.355-0.355h-3.112c-0.196 0-0.355 0.161-0.355 0.355 0 0.195 0.159 0.355 0.355 0.355h3.112c0.195 0 0.355-0.159 0.355-0.355zM26.793 18.889c0-0.194-0.16-0.355-0.355-0.355h-3.113c-0.195 0-0.354 0.161-0.354 0.355 0 0.195 0.159 0.355 0.354 0.355h3.113c0.195 0 0.355-0.159 0.355-0.355zM20.302 16.401c0-0.195-0.16-0.355-0.355-0.355h-2.195c-0.195 0-0.355 0.161-0.355 0.355s0.159 0.355 0.355 0.355h2.195c0.195 0 0.355-0.159 0.355-0.355zM25.886 16.401c0-0.195-0.161-0.355-0.355-0.355h-2.194c-0.196 0-0.355 0.161-0.355 0.355s0.159 0.355 0.355 0.355h2.194c0.195 0 0.355-0.159 0.355-0.355zM21.21 15.116c0-0.195-0.16-0.355-0.355-0.355h-3.112c-0.196 0-0.355 0.161-0.355 0.355s0.159 0.354 0.355 0.354h3.112c0.195 0 0.355-0.159 0.355-0.354zM26.793 15.116c0-0.195-0.16-0.355-0.355-0.355h-3.113c-0.195 0-0.354 0.161-0.354 0.355s0.159 0.354 0.354 0.354h3.113c0.195 0 0.355-0.159 0.355-0.354zM20.303 12.407c0-0.195-0.16-0.355-0.355-0.355h-2.195c-0.195 0-0.354 0.16-0.354 0.355s0.159 0.354 0.354 0.354h2.195c0.195 0 0.355-0.159 0.355-0.354zM25.887 12.407c0-0.195-0.161-0.355-0.355-0.355h-2.194c-0.195 0-0.355 0.16-0.355 0.355s0.16 0.354 0.355 0.354h2.194c0.195 0 0.355-0.159 0.355-0.354zM21.211 11.121c0-0.194-0.16-0.355-0.355-0.355h-3.112c-0.196 0-0.355 0.161-0.355 0.355 0 0.196 0.159 0.355 0.355 0.355h3.112c0.195 0 0.355-0.159 0.355-0.355zM26.795 11.121c0-0.194-0.161-0.355-0.355-0.355h-3.113c-0.195 0-0.354 0.161-0.354 0.355 0 0.196 0.159 0.355 0.354 0.355h3.113c0.195 0 0.355-0.159 0.355-0.355z"></path>
<path d="M4.738 8.722c0-0.337 0.275-0.613 0.613-0.613s0.612 0.275 0.612 0.613c0 0.337-0.274 0.611-0.612 0.611s-0.613-0.275-0.613-0.611zM6.471 8.722c0-0.337 0.275-0.613 0.612-0.613s0.613 0.275 0.613 0.613c0 0.337-0.275 0.611-0.613 0.611s-0.612-0.275-0.612-0.611zM8.204 8.722c0-0.337 0.275-0.613 0.611-0.613s0.613 0.275 0.613 0.613c0 0.337-0.275 0.611-0.613 0.611s-0.611-0.275-0.611-0.611z"></path>
<path d="M9.333 20.859c-0.054 0-0.108-0.003-0.179-0.007-0.060-0.004-0.137-0.011-0.213-0.021-0.111-0.010-0.204-0.024-0.293-0.045-0.051-0.004-0.091-0.013-0.131-0.021-0.133-0.027-0.237-0.054-0.339-0.089-0.027-0.005-0.051-0.013-0.075-0.020-0.144-0.045-0.257-0.088-0.368-0.137-0.012-0.004-0.022-0.007-0.030-0.012-0.41-0.178-0.765-0.401-1.083-0.667-0.107-0.091-0.214-0.189-0.313-0.293-0.007-0.005-0.013-0.013-0.020-0.021-0.753-0.782-1.217-1.849-1.217-3.024 0-1.173 0.463-2.239 1.217-3.020 0.007-0.008 0.013-0.015 0.020-0.021s0.016-0.015 0.025-0.024c0.045-0.047 0.083-0.083 0.123-0.113 0.067-0.069 0.125-0.121 0.185-0.169 0.049-0.042 0.095-0.078 0.145-0.109 0.069-0.059 0.129-0.103 0.193-0.144 0.048-0.034 0.090-0.063 0.137-0.087 0.081-0.055 0.152-0.098 0.226-0.136 0.034-0.020 0.065-0.035 0.099-0.050 0.103-0.057 0.195-0.099 0.29-0.139 0.004-0.001 0.007-0.003 0.011-0.004 0.533-0.223 1.097-0.342 1.687-0.342 0.884 0 1.708 0.265 2.423 0.741 0.004 0.001 0.007 0.004 0.011 0.007 0.091 0.059 0.18 0.125 0.287 0.214 0.018 0.011 0.035 0.026 0.053 0.041 0.075 0.060 0.148 0.125 0.233 0.213 0.027 0.019 0.051 0.042 0.079 0.073 0.012 0.009 0.022 0.018 0.031 0.027 0.006 0.007 0.013 0.015 0.021 0.025 0.751 0.781 1.217 1.845 1.217 3.017 0 1.175-0.466 2.242-1.22 3.024-0.008 0.008-0.013 0.015-0.019 0.021-0.259 0.267-0.553 0.499-0.885 0.693-0.034 0.026-0.073 0.049-0.112 0.070-0.064 0.037-0.128 0.071-0.204 0.102-0.056 0.033-0.113 0.059-0.178 0.087-0.059 0.027-0.117 0.051-0.19 0.074-0.069 0.031-0.142 0.057-0.21 0.078-0.165 0.054-0.335 0.098-0.206 0.062-0.261 0.061-0.221 0.053-0.211 0.050 0.012-0.001 0.021-0.005-0.209 0.041 0.105-0.017-0.036 0.007-0.22 0.029 0.035-0.003 0.071-0.007-0.24 0.021 0.181-0.009 0.010 0.004-0.16 0.007-0.035 0.003-0.064 0.003-0.093 0.003-0.030 0-0.058 0-0.095-0.003zM9.475 20.147c0.191-0.034 0.48-0.292 0.735-0.939-0.251-0.021-0.513-0.033-0.781-0.033-0.271 0-0.533 0.012-0.785 0.033 0.256 0.65 0.543 0.904 0.733 0.939 0.011 0.003 0.021 0.003 0.033 0.001h0.038c0.009 0.002 0.018 0.002 0.027-0.001zM10.757 19.891c0.13-0.043 0.254-0.099 0.365-0.161 0.062-0.026 0.121-0.059 0.123-0.073 0.121-0.063 0.234-0.138 0.343-0.217l-0.004-0.001-0.138-0.037c-0.163-0.039-0.335-0.074-0.513-0.103-0.021 0.057-0.041 0.112-0.063 0.166-0.067 0.168-0.139 0.327-0.22 0.469 0.063-0.014 0.121-0.036 0.107-0.043zM7.984 19.464c-0.023-0.054-0.043-0.109-0.063-0.166-0.179 0.029-0.351 0.065-0.513 0.103l-0.141 0.037-0.003 0.001c0.102 0.075 0.209 0.146 0.323 0.206 0.017 0.021 0.083 0.058 0.152 0.088 0.092 0.052 0.203 0.105 0.319 0.143 0.041 0.027 0.087 0.045 0.139 0.055-0.078-0.143-0.15-0.301-0.214-0.468zM7.723 18.611c-0.123-0.528-0.2-1.124-0.219-1.757h-1.707c0.075 0.772 0.389 1.473 0.866 2.028 0.32-0.111 0.675-0.202 1.060-0.271zM13.059 16.855h-1.707c-0.020 0.631-0.098 1.229-0.22 1.757 0.385 0.068 0.74 0.16 1.059 0.271 0.477-0.555 0.793-1.256 0.868-2.028zM9.429 18.467c0.342 0 0.675 0.017 0.996 0.048 0.117-0.485 0.195-1.048 0.217-1.66h-2.431c0.022 0.612 0.1 1.175 0.216 1.66 0.322-0.031 0.657-0.048 1.001-0.048zM7.723 14.395c-0.385-0.069-0.741-0.159-1.060-0.27-0.477 0.553-0.791 1.253-0.865 2.021h1.705c0.021-0.629 0.097-1.223 0.219-1.751zM10.424 14.491c-0.321 0.031-0.654 0.047-0.995 0.047-0.343 0-0.678-0.016-1-0.047-0.117 0.484-0.194 1.046-0.217 1.655h2.431c-0.023-0.609-0.101-1.171-0.219-1.655zM12.192 14.125c-0.32 0.111-0.677 0.201-1.061 0.271 0.123 0.526 0.2 1.12 0.221 1.749h1.705c-0.074-0.767-0.389-1.466-0.865-2.021zM10.207 13.799c-0.277-0.702-0.591-0.943-0.779-0.943-0.195 0-0.507 0.247-0.781 0.943 0.251 0.020 0.513 0.030 0.783 0.030 0.267 0 0.528-0.010 0.778-0.030zM11.447 13.606l0.145-0.037c-0.111-0.082-0.227-0.157-0.343-0.217-0.053-0.043-0.113-0.075-0.129-0.077-0.125-0.067-0.255-0.127-0.387-0.171-0.048-0.029-0.1-0.048-0.086-0.034 0.082 0.147 0.156 0.308 0.224 0.476 0.021 0.055 0.041 0.109 0.061 0.165 0.18-0.030 0.352-0.065 0.515-0.105zM7.984 13.546c0.065-0.168 0.139-0.329 0.22-0.475 0.001-0.008-0.059 0.013-0.113 0.045-0.117 0.037-0.236 0.093-0.349 0.156-0.029 0.007-0.095 0.044-0.155 0.090-0.111 0.056-0.22 0.129-0.325 0.207l0.146 0.037c0.161 0.040 0.335 0.075 0.514 0.105 0.019-0.056 0.041-0.111 0.062-0.165z"></path>
</symbol>
<symbol id="icon-telegram" viewBox="0 0 32 32">
<path d="M27.613 4.873c0 0 2.59-1.010 2.374 1.443-0.072 1.010-0.719 4.545-1.223 8.369l-1.727 11.326c0 0-0.144 1.659-1.439 1.948s-3.238-1.010-3.598-1.299c-0.288-0.216-5.396-3.463-7.195-5.050-0.504-0.433-1.079-1.299 0.072-2.309l7.555-7.214c0.863-0.866 1.727-2.886-1.871-0.433l-10.073 6.854c0 0-1.151 0.721-3.31 0.072l-4.677-1.443c0 0-1.727-1.082 1.223-2.164 7.195-3.391 16.045-6.854 23.887-10.1z"></path>
</symbol>
<symbol id="icon-arrow" viewBox="0 0 32 32">
<path fill="#00ad97" style="fill: var(--color1, #00ad97)" d="M31.089 22.634l-1.822 1.822-13.266-13.266-13.266 13.266-1.822-1.822 15.089-15.089z"></path>
<path fill="#00ad97" style="fill: var(--color1, #00ad97)" d="M29.266 25.367l-13.266-13.266-13.266 13.266-2.734-2.734 16-16 16 16-2.734 2.734zM16 10.279l13.266 13.266 0.911-0.911-14.178-14.178-14.178 14.178 0.911 0.911 13.266-13.266z"></path>
</symbol>
<symbol id="icon-github" viewBox="0 0 32 32">
<path d="M16 0.396c-8.839 0-16 7.167-16 16 0 7.073 4.584 13.068 10.937 15.183 0.803 0.151 1.093-0.344 1.093-0.772 0-0.38-0.009-1.385-0.015-2.719-4.453 0.964-5.391-2.151-5.391-2.151-0.729-1.844-1.781-2.339-1.781-2.339-1.448-0.989 0.115-0.968 0.115-0.968 1.604 0.109 2.448 1.645 2.448 1.645 1.427 2.448 3.744 1.74 4.661 1.328 0.14-1.031 0.557-1.74 1.011-2.135-3.552-0.401-7.287-1.776-7.287-7.907 0-1.751 0.62-3.177 1.645-4.297-0.177-0.401-0.719-2.031 0.141-4.235 0 0 1.339-0.427 4.4 1.641 1.281-0.355 2.641-0.532 4-0.541 1.36 0.009 2.719 0.187 4 0.541 3.043-2.068 4.381-1.641 4.381-1.641 0.859 2.204 0.317 3.833 0.161 4.235 1.015 1.12 1.635 2.547 1.635 4.297 0 6.145-3.74 7.5-7.296 7.891 0.556 0.479 1.077 1.464 1.077 2.959 0 2.14-0.020 3.864-0.020 4.385 0 0.416 0.28 0.916 1.104 0.755 6.4-2.093 10.979-8.093 10.979-15.156 0-8.833-7.161-16-16-16z"></path>
</symbol>
<symbol id="icon-fire" viewBox="0 0 24 32">
<path fill="#ff6b09" style="fill: var(--color2, #ff6b09)" d="M21.909 16.592c-0.283-0.634-0.674-1.259-1.246-1.982-1.442-1.813-1.882-5.856-1.888-5.896-0.022-0.194-0.155-0.352-0.333-0.41l-0.003-0.001c-0.045-0.015-0.096-0.023-0.15-0.023-0.146 0-0.277 0.063-0.368 0.164l-0 0c-1.722 1.925-0.997 4.896-0.608 6.085 0.109 0.325 0.226 0.707 0.309 1.094 0.637 3.138-0.592 4.558-0.88 4.845-0.278 0.077-0.469 0.038-0.645-0.15-0.606-0.664-0.806-2.842-0.523-5.678 0.059-0.576 0.045-1.096-0.038-1.581-0.598-3.485-2.792-5.722-3.349-6.506-1.536-2.269-1.693-6.046-1.696-6.080-0.010-0.261-0.225-0.469-0.488-0.469-0.103 0-0.198 0.032-0.277 0.086l0.002-0.001c-2.562 1.741-2.342 5.936-1.984 8.277 0.082 0.544 0.243 1.096 0.522 1.794 0.992 2.496-0.195 5.722-0.205 5.75s-0.021 0.054-0.026 0.083c-0.15 0.795-0.405 1.27-0.688 1.27-0.033-0.001-0.065-0.007-0.095-0.017l0.002 0.001c-0.347-0.072-0.528-0.44-0.534-0.76-0.019-4.136-4.17-5.528-4.213-5.542-0.045-0.015-0.096-0.024-0.15-0.024-0.147 0-0.279 0.065-0.368 0.169l-0.001 0.001c-0.075 0.084-0.121 0.195-0.121 0.317 0 0.079 0.019 0.153 0.053 0.219l-0.001-0.003c0.048 0.102 0.205 0.549 0.098 2.125-0.093 1.416-0.352 2.816-0.768 4.16-0.528 1.721-0.832 3.698-0.832 5.747 0 0.234 0.004 0.468 0.012 0.7l-0.001-0.034c0.76 8.256 12.635 9.704 19.683 5.051 0.732-0.471 1.35-1.046 1.854-1.712l0.013-0.018c2.6-3.589 1.072-8.461-0.069-11.051zM3.845 24.48c0.014 0.267-0.192 0.496-0.459 0.51h-0.030c-0.001 0-0.002 0-0.003 0-0.258 0-0.469-0.201-0.485-0.455l-0-0.001c-0.045-0.707-0.035-1.45 0.019-2.254 0.018-0.256 0.23-0.456 0.489-0.456 0.271 0 0.49 0.219 0.49 0.49 0 0.012-0 0.024-0.001 0.035l0-0.002c-0.054 0.768-0.064 1.466-0.019 2.134zM4.085 20.186c-0.030 0.242-0.234 0.427-0.481 0.427-0.001 0-0.002 0-0.004 0h0c-0.019 0-0.038 0-0.064-0.005-0.243-0.031-0.429-0.237-0.429-0.486 0-0.019 0.001-0.037 0.003-0.056l-0 0.002 0.235-1.872c0.035-0.241 0.24-0.424 0.488-0.424 0.021 0 0.041 0.001 0.062 0.004l-0.002-0c0.243 0.029 0.429 0.235 0.429 0.483 0 0.021-0.001 0.043-0.004 0.063l0-0.002-0.234 1.866zM18.602 6.634c-0.235-0.036-0.414-0.237-0.414-0.48 0-0.026 0.002-0.052 0.006-0.077l-0 0.003c0.030-0.197 0.208-1.205 0.686-1.712 0.090-0.095 0.216-0.154 0.357-0.154 0.129 0 0.247 0.050 0.335 0.132l-0-0c0.197 0.184 0.208 0.49 0.022 0.686-0.203 0.214-0.376 0.829-0.434 1.197-0.039 0.234-0.24 0.411-0.482 0.411-0.027 0-0.054-0.002-0.079-0.006l0.003 0zM0.779 9.048c-0.094-0.36-0.326-0.955-0.55-1.149-0.102-0.089-0.167-0.219-0.167-0.364 0-0.123 0.046-0.236 0.122-0.321l-0 0c0.090-0.102 0.221-0.165 0.367-0.165 0.124 0 0.236 0.046 0.323 0.121l-0.001-0c0.528 0.458 0.802 1.445 0.853 1.638 0.009 0.036 0.015 0.076 0.015 0.119 0 0.226-0.154 0.416-0.363 0.469l-0.003 0.001c-0.037 0.010-0.079 0.015-0.122 0.015-0.226 0-0.416-0.153-0.472-0.361l-0.001-0.003z"></path>
</symbol>
<symbol id="icon-mark" viewBox="0 0 42 32">
<path fill="#fff" style="fill: var(--color3, #fff); stroke: var(--color3, #fff)" stroke="#fff" stroke-linejoin="miter" stroke-linecap="butt" stroke-miterlimit="4" stroke-width="0.64" d="M6.263 15.205l-0.22-0.21-3.307 3.132 11.651 11.114 24.477-23.351-3.285-3.134-21.192 20.197-8.124-7.75z"></path>
</symbol>
<symbol id="icon-tel" viewBox="0 0 32 32">
<path d="M27.419 20.853l-4.201-0.48c-0.116-0.014-0.25-0.023-0.385-0.023-0.909 0-1.732 0.369-2.328 0.964l-3.045 3.045c-4.718-2.435-8.467-6.185-10.835-10.764l-0.065-0.139 3.063-3.056c0.596-0.596 0.964-1.419 0.964-2.328 0-0.136-0.008-0.27-0.024-0.401l0.002 0.016-0.48-4.169c-0.199-1.655-1.595-2.926-3.287-2.926-0.001 0-0.003 0-0.004 0h-2.861c-1.87-0.005-3.424 1.55-3.31 3.417 0.878 14.126 12.176 25.408 26.286 26.286 1.867 0.114 3.424-1.44 3.424-3.31v-2.862c0-0.005 0-0.010 0-0.016 0-1.681-1.266-3.067-2.897-3.256l-0.015-0.001z"></path>
</symbol>
<symbol id="icon-instagram" viewBox="0 0 32 32">
<path d="M31.968 9.408c-0.074-1.701-0.349-2.869-0.742-3.882-0.424-1.111-1.054-2.059-1.85-2.837l-0.001-0.001c-0.78-0.792-1.724-1.419-2.778-1.827l-0.054-0.018c-1.019-0.394-2.181-0.667-3.882-0.742-1.712-0.082-2.256-0.101-6.602-0.101-4.344 0-4.888 0.019-6.595 0.094-1.699 0.074-2.869 0.349-3.88 0.742-1.112 0.424-2.060 1.054-2.839 1.85l-0.001 0.001c-0.791 0.78-1.418 1.724-1.825 2.778l-0.018 0.054c-0.395 1.019-0.669 2.181-0.744 3.882-0.082 1.712-0.101 2.256-0.101 6.602 0 4.344 0.019 4.888 0.094 6.595 0.075 1.701 0.35 2.869 0.744 3.882 0.426 1.11 1.055 2.057 1.849 2.837l0.001 0.001c0.8 0.813 1.77 1.443 2.832 1.843 1.019 0.395 2.182 0.67 3.882 0.744 1.707 0.075 2.251 0.094 6.595 0.094 4.346 0 4.89-0.019 6.595-0.094 1.701-0.074 2.869-0.349 3.882-0.742 2.157-0.85 3.833-2.526 4.664-4.628l0.019-0.055c0.394-1.019 0.669-2.182 0.744-3.882 0.075-1.707 0.093-2.251 0.093-6.595s-0.006-4.888-0.080-6.595zM29.088 22.474c-0.070 1.563-0.333 2.406-0.55 2.97-0.552 1.399-1.64 2.486-3.004 3.024l-0.036 0.012c-0.56 0.219-1.411 0.482-2.968 0.55-1.688 0.075-2.194 0.094-6.464 0.094-4.269 0-4.782-0.019-6.464-0.094-1.563-0.069-2.406-0.331-2.97-0.55-0.721-0.269-1.334-0.676-1.836-1.192l-0.001-0.001c-0.517-0.503-0.924-1.117-1.184-1.803l-0.011-0.034c-0.218-0.563-0.48-1.413-0.549-2.97-0.075-1.688-0.094-2.195-0.094-6.464 0-4.27 0.019-4.784 0.094-6.464 0.069-1.563 0.331-2.406 0.549-2.97 0.269-0.722 0.678-1.337 1.198-1.837l0.002-0.002c0.504-0.517 1.119-0.923 1.806-1.182l0.034-0.011c0.56-0.219 1.411-0.48 2.968-0.55 1.688-0.074 2.195-0.093 6.464-0.093 4.275 0 4.782 0.019 6.464 0.093 1.563 0.069 2.406 0.331 2.97 0.55 0.693 0.256 1.325 0.662 1.837 1.194 0.531 0.52 0.938 1.144 1.195 1.84 0.218 0.56 0.48 1.411 0.549 2.968 0.075 1.688 0.094 2.194 0.094 6.464 0 4.269-0.019 4.768-0.094 6.458z"></path>
<path d="M16.059 7.782c-4.539 0.002-8.218 3.682-8.219 8.221v0c0.091 4.471 3.737 8.060 8.221 8.060s8.13-3.589 8.221-8.052l0-0.009c-0.001-4.54-3.681-8.22-8.221-8.221h-0zM16.059 21.334c-2.945-0-5.332-2.388-5.332-5.333s2.388-5.333 5.333-5.333c0 0 0.001 0 0.001 0h-0c2.946 0 5.334 2.388 5.334 5.334s-2.388 5.334-5.334 5.334v0zM26.525 7.458c0 1.060-0.86 1.92-1.92 1.92s-1.92-0.86-1.92-1.92v0c0-1.060 0.86-1.92 1.92-1.92s1.92 0.86 1.92 1.92v0z"></path>
</symbol>
<symbol id="icon-facebook" viewBox="0 0 32 32">
<path d="M21.328 5.312h2.923v-5.088c-1.232-0.143-2.66-0.224-4.107-0.224-0.052 0-0.104 0-0.157 0l0.008-0c-4.213 0-7.099 2.65-7.099 7.52v4.48h-4.646v5.688h4.646v14.312h5.699v-14.31h4.459l0.709-5.688h-5.17v-3.922c0-1.643 0.443-2.768 2.734-2.768z"></path>
</symbol>
<symbol id="icon-mail" viewBox="0 0 43 32">
<path d="M38.667 0h-34.667c-2.206 0-4 1.794-4 4v24c0 2.206 1.794 4 4 4h34.667c2.206 0 4-1.794 4-4v-24c0-2.206-1.794-4-4-4zM38.667 2.667c0.181 0 0.353 0.038 0.511 0.103l-17.844 15.466-17.844-15.466c0.151-0.065 0.327-0.103 0.511-0.103h34.667zM38.667 29.333h-34.667c-0.736-0.001-1.332-0.597-1.333-1.333v-22.413l17.793 15.421c0.233 0.202 0.539 0.326 0.874 0.326s0.641-0.123 0.876-0.327l-0.002 0.001 17.793-15.421v22.413c0 0.736-0.598 1.333-1.333 1.333z"></path>
</symbol>
<symbol id="icon-pencil" viewBox="0 0 32 32">
<path d="M12 20l4-2 14-14-2-2-14 14-2 4zM9.041 27.097c-0.989-2.085-2.052-3.149-4.137-4.137l3.097-8.525 4-2.435 12-12h-6l-12 12-6 20 20-6 12-12v-6l-12 12-2.435 4z"></path>
</symbol>
</defs>
</svg>
